<svg fill='#DFE0DF' id="Capa_1" data-name="Capa 1" xmlns="http://www.w3.org/2000/svg" viewBox="0 0 384 322.37"><title>magistrate</title><path d="M104.51,232.24c1.91-1.51,3.61-3.45,5.75-4.46q90.88-42.93,181.82-85.73a9.5,9.5,0,0,1,8.87,0q90.9,42.89,181.82,85.73c2.14,1,3.84,3,5.74,4.48V236c-1.88,1.55-3.53,3.56-5.66,4.58q-28.37,13.58-56.9,26.8c-2.68,1.24-3.54,2.65-3.52,5.59.15,18.5-.06,37,.14,55.5a36.32,36.32,0,0,1-6.64,21.43c-5.58,8.18-12.85,14.63-20.94,20.17-1.88,1.29-2.69,2.64-2.52,4.89a72.15,72.15,0,0,1,0,7.5c-.18,5.41-.32,9.84,5.67,13.67,8,5.12,8.29,16.59,2.47,24.42a8.61,8.61,0,0,0-1.58,5.31c.63,9.85,1.61,19.67,2.36,29.52.41,5.48-1.87,7.88-7.34,7.92q-7.5,0-15,0c-5.69,0-7.92-2.41-7.47-8.16.77-9.84,1.73-19.67,2.39-29.52a8,8,0,0,0-1.52-5c-6.91-9.13-4.57-21.53,5.46-27.05,1.93-1.06,2.73-2.1,2.61-4.27-.17-3.23,0-6.48,0-10.2-4,1.83-7.67,3.67-11.45,5.16-56.06,22.05-110.77,19.78-163.81-9.55a87.45,87.45,0,0,1-24.56-20.06c-6.76-8-10.54-16.9-10.29-27.72.41-18,0-36,.18-54,0-2.9-.76-4.36-3.49-5.62q-28.56-13.17-56.9-26.79c-2.13-1-3.8-3-5.68-4.55Zm363.78,2c-1.4-.7-2.17-1.1-3-1.46Q382.2,193.59,299,154.51a6.85,6.85,0,0,0-5.13.1q-64.75,30.31-129.4,60.85l-39.61,18.61c1.21.68,2,1.22,2.92,1.64q83,39.09,166,78.08a7.87,7.87,0,0,0,5.84-.12c17.11-7.88,34.13-16,51.17-24,7.86-3.7,15.71-7.43,24-11.34-1.23-.74-2-1.29-2.91-1.72l-75.68-37.85a19.94,19.94,0,0,1-3.27-1.81,5.54,5.54,0,0,1-1.86-7.31c1.41-3,4-4,7.18-3.12a19.67,19.67,0,0,1,3.4,1.57q42,21,84,42a6.7,6.7,0,0,0,6.63.05c15.53-7.44,31.13-14.73,46.7-22.08ZM380.51,289c-2,.87-3.36,1.44-4.69,2.06q-37.26,17.54-74.49,35.12a10.19,10.19,0,0,1-9.58,0q-52.26-24.75-104.63-49.3c-1.41-.66-2.85-1.26-4.61-2,0,17.82.23,35.07-.11,52.31a27.29,27.29,0,0,0,6.91,18.82c6.34,7.56,14.07,13.45,22.49,18.47,21.86,13,45.64,19.92,70.91,21.83,33.44,2.53,65.12-3.53,94.75-19.55a5,5,0,0,0,3.11-5.19c-.11-22.88-.06-45.75-.06-68.63Zm30-14.2c-5.5,2.58-10.4,5-15.41,7.15-2.08.89-2.62,2.12-2.61,4.27.07,22.35,0,44.7,0,67.05a25.19,25.19,0,0,0,.29,2.71l1.13.61c4.49-5.28,9.26-10.34,13.34-15.93a16.77,16.77,0,0,0,3.07-9C410.62,312.88,410.49,294.15,410.49,274.77ZM386.8,403.31a6,6,0,1,0,5.68,6.18A6,6,0,0,0,386.8,403.31Zm.19,24.51h-1l-1.92,23.23H389C388.29,443.13,387.64,435.48,387,427.82Z" transform="translate(-104.51 -140.94)"/></svg>