<svg id="Capa_1" data-name="Capa 1" xmlns="http://www.w3.org/2000/svg" viewBox="0 0 371.97 347.81" fill='#b7521e'><title>work-schedule</title><path d="M223.33,287.61a45.61,45.61,0,0,1,4.94,2.43c5.35,3.46,10.67,7,15.91,10.6,1.64,1.13,2.86,1.11,4.71.28,6.58-3,13.25-5.77,20-8.3a4.52,4.52,0,0,0,3.3-3.89q1.82-9.57,3.81-19.1c.86-4.14,2.76-5.67,7.06-5.69q16.88-.06,33.76,0c4.49,0,6.37,1.54,7.28,5.89,1.27,6.11,2.57,12.21,3.65,18.36.43,2.49,1.4,3.69,3.94,4.6,6.57,2.35,13,5.16,19.32,8.07,2,.9,3.27.92,5-.3,5.23-3.64,10.57-7.12,15.89-10.63,4.06-2.68,6.22-2.53,9.61.83q12,11.89,23.87,23.87c3.07,3.1,3.3,5.39.94,9-3.54,5.45-7.1,10.89-10.82,16.21-1.33,1.9-1.19,3.3-.24,5.37,2.91,6.34,5.64,12.78,8,19.32a4.74,4.74,0,0,0,4.07,3.58c6.26,1.16,12.51,2.42,18.74,3.74,4.45.94,5.92,2.75,5.94,7.23q.06,16.88,0,33.75c0,4.31-1.5,6.22-5.65,7.11q-9.35,2-18.74,3.73a5,5,0,0,0-4.41,3.68c-2.41,6.67-5.26,13.19-8.17,19.67-.81,1.8-1,3,.21,4.7,3.72,5.32,7.29,10.75,10.85,16.18,2.62,4,2.39,6.18-1,9.62q-11.64,11.7-23.34,23.34c-3.72,3.69-5.71,3.83-10.21.86-5.32-3.5-10.56-7.14-16-10.48a5.45,5.45,0,0,0-4.24-.19c-6.85,2.66-13.66,5.46-20.36,8.47a6,6,0,0,0-3,3.53c-1.51,6.31-2.61,12.72-3.93,19.08-.87,4.17-2.77,5.79-7,5.81q-17.07.06-34.14,0c-4.22,0-6.13-1.62-7-5.78q-2-9.54-3.79-19.1a4.57,4.57,0,0,0-3.38-3.84q-10.14-3.83-20-8.33a4.08,4.08,0,0,0-4.69.38q-8,5.52-16.2,10.84c-3.89,2.53-6.05,2.31-9.32-.93q-12-11.9-23.87-23.87c-3.22-3.23-3.41-5.41-.86-9.31,3.55-5.44,7.13-10.86,10.82-16.21,1.13-1.64,1.12-2.86.28-4.71-3-6.58-5.78-13.25-8.31-20a4.53,4.53,0,0,0-3.88-3.31c-6.25-1.19-12.49-2.46-18.73-3.74-4.6-1-6.06-2.72-6.07-7.49q0-16.69,0-33.38c0-4.51,1.55-6.38,5.88-7.27,6.36-1.3,12.73-2.58,19.11-3.79a4.5,4.5,0,0,0,3.82-3.38c2.53-6.76,5.57-13.33,8.19-20.06a5.42,5.42,0,0,0-.25-4.24c-3.49-5.62-7.29-11.05-10.92-16.59-2.52-3.85-2.31-6,.93-9.3q11.89-12,23.91-23.84A29.34,29.34,0,0,1,223.33,287.61Zm1.87,14.81-18.72,18.72c3.38,5.07,7,10.64,10.75,16.06,2.28,3.26,2.08,6.11.42,9.72-3.9,8.46-7.35,17.14-10.67,25.85-1.23,3.22-2.8,5.36-6.35,6-6,1.09-12,2.51-18,3.55-2,.36-2.7,1.07-2.67,3.11.1,7,.1,14,0,21,0,2,.56,2.79,2.63,3.14,6,1,12,2.46,18,3.52,3.56.63,5.14,2.74,6.37,6,3.37,8.82,6.92,17.59,10.82,26.19,1.52,3.33,1.78,6-.32,9-3.89,5.63-7.61,11.38-11.19,16.76l18.66,18.62c5.5-3.64,11.35-7.44,17.1-11.38a7,7,0,0,1,8.37-.2,90.19,90.19,0,0,0,26.52,11,7.18,7.18,0,0,1,5.94,6.34c1.06,6,2.51,12,3.55,18,.36,2.1,1.22,2.61,3.19,2.59q10.5-.15,21,0c2.08,0,2.73-.73,3.08-2.71,1-5.9,2.48-11.72,3.46-17.63.62-3.71,2.67-5.41,6.08-6.69,8.72-3.27,17.41-6.72,25.86-10.65,3.63-1.69,6.42-1.88,9.68.41,5.5,3.85,11.16,7.47,16.37,10.93L393.75,471c-3.64-5.48-7.46-11.33-11.39-17.1a6.82,6.82,0,0,1-.31-8,92.32,92.32,0,0,0,11.29-27.2,6.73,6.73,0,0,1,5.9-5.46c6.14-1.14,12.27-2.34,18.34-3.77A3.84,3.84,0,0,0,420,406.7c.2-7.11,0-14.24.15-21.36,0-2.15-.86-2.7-2.77-3-5.77-1-11.47-2.52-17.27-3.41-4.07-.62-5.74-2.85-7.1-6.54-3.11-8.52-6.56-17-10.41-25.15-1.75-3.71-2.11-6.6.32-10,3.89-5.47,7.47-11.14,10.81-16.16L375,302.31c-5.37,3.57-11.12,7.32-16.78,11.2a7.23,7.23,0,0,1-8.69.22,89.25,89.25,0,0,0-26.53-11,6.93,6.93,0,0,1-5.77-6.06c-1.1-6-2.53-12-3.55-18-.37-2.22-1.2-2.87-3.37-2.82-6.13.13-12.25,0-18.38,0h-5c-1.46,7.22-2.91,13.8-4.09,20.43-.63,3.52-2.4,5.63-5.85,6.44a90,90,0,0,0-26.53,11,7.24,7.24,0,0,1-8.69-.28C236.18,309.59,230.41,305.87,225.2,302.42Z" transform="translate(-114.12 -222.1)"/><path d="M456.83,352.84c-3.68-9.2-6.7-18.74-11.16-27.55-25.52-50.44-66.4-80.74-122.15-89.57-85.89-13.61-168.67,46.49-183,132.14-1.46,8.72-1.8,17.63-2.43,26.46-.36,4.92-2.49,7.77-6.32,7.61S126,399,126,394.2c.33-77.27,54-146.42,129-166.19,89.91-23.71,181.22,25.78,210.54,114.11.35,1.06.76,2.09,1.41,3.86,2.24-5.33,4.23-10.05,6.21-14.77.54-1.27,1-2.57,1.64-3.78,1.61-3,4.6-4.2,7.54-3a5.75,5.75,0,0,1,3.36,7.68c-1.51,4.09-3.25,8.1-4.93,12.13-3.05,7.38-6.09,14.77-9.21,22.12C469.33,371.5,466,372.62,461,370c-10.16-5.35-20.3-10.73-30.48-16.05-2.77-1.44-4.74-3.35-4.37-6.71.46-4.29,4.89-6.47,9.1-4.36,5.8,2.91,11.5,6,17.25,9,1,.55,2.13,1.05,3.2,1.56Z" transform="translate(-114.12 -222.1)"/><path d="M133.15,446c-2.52,6-4.79,11.54-7.14,17-1.77,4.17-4.78,5.8-8.11,4.52-3.54-1.38-4.73-4.81-3-9.05q6.77-16.46,13.65-32.85c2.16-5.14,5.5-6.32,10.48-3.72q15.27,8,30.48,16.07c4.19,2.22,5.49,5.5,3.67,8.81s-5.16,3.92-9.41,1.71c-6.42-3.35-12.81-6.73-20-10.53.82,3,1.3,5.32,2.09,7.54,22.17,62.21,65.76,100,130.83,110.58,83.7,13.66,164.69-43.29,181.68-126.33,2.19-10.71,2.65-21.78,3.69-32.7.3-3.15,1.08-5.65,4.25-6.77,4.15-1.47,7.84,1.71,7.8,6.79-.13,15.7-2,31.22-6.66,46.2-19.94,63.77-62,105.4-126.89,121.5C252.19,586.7,163.23,536.32,134.65,449.9,134.26,448.74,133.78,447.62,133.15,446Z" transform="translate(-114.12 -222.1)"/><path d="M299.75,318c43.85.16,78.42,35,78.31,78.83C378,439.3,342.56,474.1,299.59,474c-42.7-.14-77.76-35.44-77.57-78.1C222.21,352.85,257.18,317.81,299.75,318Zm.21,144a66,66,0,0,0,66.09-66.38c0-36.27-29.86-65.7-66.48-65.61C263.65,330,234,359.83,234,395.78A66.06,66.06,0,0,0,300,461.94Z" transform="translate(-114.12 -222.1)"/><path d="M306.05,385.35c6.5-3.9,12.46-7.46,18.4-11,5.27-3.17,8.63-3,10.77.48s.73,6.64-4.49,9.77c-8.57,5.13-17.15,10.23-25.68,15.4-2.55,1.54-5.06,2.87-8,1.11-2.74-1.65-3-4.3-3-7.17.05-15.11,0-30.22.05-45.33,0-4.05,2.56-6.66,6.09-6.6,3.38.07,5.7,2.6,5.88,6.45,0,.87,0,1.75,0,2.62v34.31Z" transform="translate(-114.12 -222.1)"/><path d="M254.89,402c-.75,0-1.5,0-2.25,0-4-.16-6.66-2.6-6.58-6.13s2.6-5.7,6.47-5.85c1.63-.06,3.25-.06,4.88,0,4,.14,6.67,2.59,6.59,6.11s-2.62,5.69-6.48,5.87C256.65,402,255.77,402,254.89,402Z" transform="translate(-114.12 -222.1)"/><path d="M345.36,390a19.82,19.82,0,0,1,3.36,0c3.24.55,5.12,2.52,5.29,5.83a5.8,5.8,0,0,1-5.49,6,42.26,42.26,0,0,1-6.75,0,5.9,5.9,0,0,1-5.68-5.86c0-3.27,2.35-5.76,5.89-6,1.12-.09,2.25,0,3.38,0Z" transform="translate(-114.12 -222.1)"/><path d="M306.05,440.94c0,6.11-1.91,9-6,9s-6-2.87-6-9,1.88-9,6-9S306.05,434.85,306.05,440.94Z" transform="translate(-114.12 -222.1)"/></svg>